<svg version="1.1" id="Layer_1" xmlns="http://www.w3.org/2000/svg" xmlns:xlink="http://www.w3.org/1999/xlink" x="0px" y="0px"
	 width="100%" viewBox="0 0 3023 605" enable-background="new 0 0 3023 605" xml:space="preserve">
<path fill="#070606" opacity="1.000000" stroke="none" 
	d="
M3.000000,1.000000 
	C1009.374329,1.000000 2015.748657,1.000000 3022.561523,1.468657 
	C3023.000000,194.239059 3023.000244,386.540802 3022.999268,578.842529 
	C3022.999268,581.008789 3023.312744,583.238647 3022.905518,585.326843 
	C3022.247314,588.700562 3021.676025,592.289246 3020.065918,595.240601 
	C3015.944824,602.795593 3008.650146,604.027222 3000.794678,604.026245 
	C2745.169922,603.994568 2489.545166,604.002136 2233.920410,603.999512 
	C1964.297974,603.996765 1694.675415,603.989624 1424.954102,603.525879 
	C1424.855347,556.758728 1424.855347,510.450104 1424.855347,462.422241 
	C1427.230835,464.323151 1428.891602,465.144806 1429.807007,466.478149 
	C1432.723877,470.726379 1435.226807,475.258362 1438.133423,479.514252 
	C1452.985107,501.260590 1472.649658,516.237244 1498.667114,522.135254 
	C1519.838867,526.934814 1541.009888,526.303772 1562.010010,521.333740 
	C1582.260742,516.541138 1600.523926,507.400757 1616.102783,493.575409 
	C1635.656006,476.223480 1649.554688,454.828033 1658.536621,430.351196 
	C1664.981323,412.788330 1669.472290,394.838959 1669.108887,375.808746 
	C1668.657104,352.151520 1669.008179,328.479095 1668.986328,304.813232 
	C1668.984375,302.820129 1668.940796,300.804047 1668.651245,298.837677 
	C1664.355957,269.655029 1653.799194,242.965912 1636.363403,219.135590 
	C1622.616943,200.347549 1605.097778,186.202240 1583.723022,176.726456 
	C1560.887939,166.603287 1537.055664,163.969177 1512.439697,166.071075 
	C1494.061768,167.640320 1477.597656,174.056030 1462.654297,184.833542 
	C1448.496216,195.044617 1439.004761,209.036484 1430.399048,223.753967 
	C1428.622437,226.792419 1426.950684,228.452438 1423.074463,226.903717 
	C1423.074463,208.109924 1423.074463,189.170349 1423.074463,170.034744 
	C1396.458008,170.034744 1370.200195,170.034744 1343.494629,170.034744 
	C1343.494629,172.347565 1343.494629,174.484695 1343.494629,176.621841 
	C1343.495972,317.117096 1343.498657,457.612366 1343.484131,598.107605 
	C1343.483887,600.090637 1343.265625,602.073669 1342.670898,604.039062 
	C1338.859619,604.014343 1335.526611,604.001282 1332.193604,604.001282 
	C898.900146,604.000366 465.606689,604.000366 32.313248,603.999939 
	C29.146879,603.999939 25.980122,604.023987 22.814213,603.983948 
	C10.301991,603.825806 3.150104,596.582153 3.011410,583.946350 
	C2.991290,582.113342 2.999461,580.280029 2.999460,578.446838 
	C2.999331,385.964569 2.999681,193.482285 3.000000,1.000000 
M972.309204,165.774551 
	C931.910217,172.545120 906.432007,197.109955 890.550659,233.862106 
	C889.786804,212.651352 889.023010,191.440598 888.254944,170.112457 
	C862.581360,170.112457 837.355286,170.112457 812.047546,170.112457 
	C812.047546,286.463989 812.047546,402.536652 812.047546,518.661621 
	C839.135315,518.661621 866.007874,518.661621 893.000122,518.661621 
	C893.000122,516.498779 893.000122,514.674011 893.000122,512.849243 
	C893.000122,444.688446 892.996216,376.527618 893.010986,308.366821 
	C893.011780,304.701965 893.022949,301.026978 893.278503,297.374115 
	C894.540222,279.338989 900.229797,263.096405 913.723633,250.498413 
	C930.018982,235.284943 949.665955,231.090134 971.159851,234.612869 
	C988.647156,237.478973 1001.910400,246.727997 1010.319885,262.482422 
	C1015.798218,272.745575 1017.188721,283.903625 1017.183228,295.368683 
	C1017.148560,368.029114 1017.165710,440.689545 1017.165710,513.349976 
	C1017.165710,515.125122 1017.165649,516.900208 1017.165649,518.661804 
	C1043.926392,518.661804 1070.141357,518.661804 1096.495239,518.661804 
	C1096.495239,516.326782 1096.495239,514.329834 1096.495239,512.332825 
	C1096.495239,444.005341 1096.483154,375.677887 1096.517090,307.350403 
	C1096.519897,301.688721 1096.471191,295.988800 1097.065674,290.372223 
	C1099.467773,267.677979 1109.488403,249.719833 1130.701660,239.632568 
	C1147.906250,231.451523 1165.853271,231.238617 1183.676758,237.474808 
	C1200.321411,243.298462 1212.724731,254.100815 1217.098877,271.687836 
	C1219.359009,280.775055 1220.328369,290.401276 1220.362671,299.789459 
	C1220.621948,370.782410 1220.504395,441.776733 1220.504639,512.770630 
	C1220.504639,514.721436 1220.504761,516.672241 1220.504761,518.774109 
	C1247.490845,518.774109 1274.072266,518.774109 1301.000000,518.774109 
	C1301.000000,516.757935 1301.000000,514.962646 1301.000000,513.167358 
	C1301.000000,434.007477 1300.931519,354.847534 1301.048462,275.687805 
	C1301.077515,255.993347 1297.019653,237.333069 1288.058228,219.850952 
	C1275.709229,195.760513 1256.526855,179.422714 1230.895752,170.699722 
	C1210.275024,163.681839 1189.190308,162.378036 1167.832886,166.203415 
	C1143.425049,170.575241 1122.116699,181.074921 1104.635864,198.962967 
	C1093.309692,210.553162 1085.330688,224.185760 1079.333618,239.897079 
	C1078.365356,237.075378 1077.635010,234.888443 1076.865967,232.715164 
	C1070.751221,215.434219 1062.664429,199.251465 1049.232788,186.419113 
	C1027.694214,165.841553 1001.521973,161.593552 972.309204,165.774551 
M2092.154785,493.359131 
	C2102.023438,499.779602 2111.408936,507.158539 2121.860107,512.422913 
	C2144.260986,523.706726 2168.489746,526.767151 2193.301270,524.810059 
	C2207.316895,523.704529 2220.787354,520.228760 2233.336426,513.480896 
	C2253.083984,502.862152 2267.071777,486.716797 2277.992676,467.594635 
	C2279.668701,464.659912 2281.286133,462.770538 2285.240723,464.445648 
	C2285.240723,482.413269 2285.240723,500.505554 2285.240723,518.598389 
	C2312.000977,518.598389 2338.359863,518.598389 2364.598877,518.598389 
	C2364.598877,363.432526 2364.598877,208.669312 2364.598877,53.820175 
	C2337.471191,53.820175 2310.581787,53.820175 2283.206543,53.820175 
	C2283.206543,111.854004 2283.206543,169.566650 2283.206543,227.279312 
	C2282.805908,227.511673 2282.405273,227.744019 2282.004395,227.976379 
	C2280.902588,226.862183 2279.571533,225.895599 2278.740723,224.606735 
	C2276.037354,220.413162 2273.648926,216.014572 2270.903809,211.850296 
	C2256.595459,190.144867 2237.342773,175.119186 2211.835693,168.832123 
	C2198.149170,165.458755 2184.217041,164.941650 2170.170410,165.769058 
	C2140.526123,167.515274 2114.452148,178.198624 2092.086426,197.494370 
	C2067.177490,218.984100 2052.315430,246.737015 2044.133423,278.216156 
	C2034.912476,313.693390 2034.288818,349.704437 2039.028931,385.830658 
	C2044.478027,427.360046 2060.290283,463.977570 2092.154785,493.359131 
M1757.774048,188.211258 
	C1731.145874,204.259796 1712.681763,226.775528 1703.090088,256.574097 
	C1728.377197,261.757538 1753.212646,266.848358 1778.190796,271.968445 
	C1779.158325,269.981628 1780.012207,268.200775 1780.889282,266.431366 
	C1785.790039,256.543304 1792.569824,248.230103 1801.794678,242.093506 
	C1822.496094,228.322632 1845.381104,225.620392 1869.319336,229.504303 
	C1883.664917,231.831863 1895.840698,238.431244 1904.102539,250.758667 
	C1909.997925,259.555298 1911.902588,269.642120 1912.382568,280.141266 
	C1912.911255,291.704712 1909.278076,298.362701 1898.748047,303.144043 
	C1895.892578,304.440582 1892.856323,305.667969 1889.785522,306.108978 
	C1863.765869,309.846130 1837.710693,313.334900 1811.682617,317.014893 
	C1785.375488,320.734344 1759.582764,326.165802 1736.246216,339.812988 
	C1717.015381,351.059235 1703.647461,367.010162 1697.241211,388.416931 
	C1692.343262,404.784546 1691.798584,421.551208 1694.087769,438.406006 
	C1698.570557,471.413177 1715.305542,496.048645 1744.942505,511.486420 
	C1765.936890,522.422363 1788.569946,526.394531 1812.072388,526.107178 
	C1829.539062,525.893677 1846.439575,523.210510 1862.671875,516.238586 
	C1882.955811,507.526428 1898.726318,493.935852 1910.104370,475.081818 
	C1911.308228,473.086914 1911.929565,469.622467 1916.077881,471.357269 
	C1916.077881,487.048920 1916.077881,502.826355 1916.077881,518.696655 
	C1942.111206,518.696655 1967.825684,518.696655 1993.835693,518.696655 
	C1993.835693,516.590393 1993.835571,514.785278 1993.835571,512.980164 
	C1993.835571,443.151001 1993.932617,373.321625 1993.750977,303.492920 
	C1993.715942,290.024536 1993.416260,276.458954 1991.801270,263.112091 
	C1987.926758,231.091095 1971.774292,206.409775 1944.566772,189.175446 
	C1923.025635,175.530487 1899.088379,169.193954 1873.897949,166.701797 
	C1833.339355,162.689209 1794.517090,167.764145 1757.774048,188.211258 
M2641.601807,315.015076 
	C2640.982910,323.976349 2640.028076,332.929291 2639.804688,341.900452 
	C2638.960449,375.806915 2644.055908,408.564697 2659.037842,439.400421 
	C2675.038086,472.332458 2699.630615,496.575897 2733.074463,511.203400 
	C2771.436035,527.981995 2811.614746,529.596069 2852.142822,521.750610 
	C2885.576904,515.278320 2914.550537,500.059906 2936.640381,473.324951 
	C2946.623535,461.241974 2953.473145,447.531158 2958.051758,432.448914 
	C2933.113037,427.279297 2908.449951,422.166779 2883.560059,417.007263 
	C2882.557373,419.248871 2881.673340,421.369659 2880.673828,423.434509 
	C2875.325928,434.482330 2867.610596,443.431366 2857.156494,449.969666 
	C2838.422363,461.686676 2817.822998,463.590363 2796.516602,461.311432 
	C2779.563721,459.498169 2764.090332,453.596832 2751.229004,442.260925 
	C2728.763184,422.459473 2721.690430,396.166931 2720.376953,366.884216 
	C2800.826660,366.884216 2880.867432,366.884216 2961.000000,366.884216 
	C2961.000000,345.803314 2961.004883,325.308838 2960.987305,304.814331 
	C2960.986328,303.654236 2960.853027,302.487396 2960.696045,301.335297 
	C2958.201416,283.054749 2952.897949,265.617920 2944.957275,248.972168 
	C2927.654297,212.699417 2899.843750,188.088074 2862.049072,174.819565 
	C2835.316406,165.434677 2807.769287,163.670731 2779.747314,166.897339 
	C2749.121826,170.423721 2721.725586,181.658737 2698.430908,201.833832 
	C2664.264404,231.424927 2647.206055,269.914734 2641.601807,315.015076 
M711.749817,201.745071 
	C704.253235,196.520340 697.080750,190.734100 689.195923,186.181931 
	C669.769775,174.966614 648.641602,168.878876 626.317322,166.670334 
	C593.294006,163.403320 561.161255,166.314835 530.594666,180.133026 
	C501.979309,193.069153 479.832062,213.320297 463.647675,240.165649 
	C449.304382,263.957245 441.539490,289.859222 438.728333,317.389832 
	C434.440887,359.377869 438.203522,400.119080 456.815033,438.703888 
	C471.012787,468.138306 492.534363,490.571106 520.992249,506.435730 
	C539.268616,516.624390 559.001953,522.156311 579.702087,524.582458 
	C604.436584,527.481445 628.984070,526.376770 653.032593,519.930603 
	C689.300964,510.208923 718.548645,489.989288 739.447937,458.662689 
	C758.014038,430.833405 768.901550,400.275452 768.986755,366.413544 
	C769.031250,348.754639 770.470947,330.929901 768.593750,313.468872 
	C763.873047,269.559082 746.046570,231.704834 711.749817,201.745071 
M94.446701,316.981903 
	C89.546440,365.021851 95.188004,411.088715 120.714851,453.197296 
	C136.327805,478.952118 158.026138,498.495880 185.359390,510.861298 
	C223.737579,528.223450 264.003021,530.303467 304.605072,520.744873 
	C349.898041,510.081970 383.369415,483.919525 402.633453,440.957428 
	C406.529846,432.267883 410.656921,423.336151 408.604462,413.232544 
	C384.076324,408.149628 359.715515,403.101379 335.304413,398.042694 
	C334.691101,400.284515 334.189728,402.192688 333.647217,404.089020 
	C324.421295,436.339172 302.206879,455.580475 269.687592,459.495758 
	C234.001038,463.792358 203.265259,445.936859 188.839798,413.061340 
	C179.852768,392.580017 175.919037,371.232147 175.628098,348.993927 
	C175.301712,324.044617 178.559082,299.806610 189.394287,277.069550 
	C197.247818,260.589386 208.583878,247.177231 225.171295,238.760941 
	C240.328644,231.070297 256.500214,230.103012 272.914215,232.201523 
	C294.063751,234.905441 311.003326,245.137466 322.331696,263.259460 
	C327.553894,271.613495 330.997437,281.079346 335.479492,290.530334 
	C359.311279,285.526367 384.109314,280.319519 409.215027,275.048065 
	C408.932892,272.280396 409.026276,269.901031 408.418060,267.717072 
	C396.491974,224.893967 369.516388,195.103729 328.782043,178.206390 
	C293.957794,163.760635 257.590820,162.054520 220.857330,169.157379 
	C181.931488,176.684174 150.600571,196.537170 127.172485,228.718994 
	C108.159447,254.836151 98.435692,284.352875 94.446701,316.981903 
M2420.164062,478.499939 
	C2420.164062,491.925507 2420.164062,505.351074 2420.164062,518.785645 
	C2447.560059,518.785645 2474.322021,518.785645 2501.502197,518.785645 
	C2501.502197,516.779236 2501.502197,514.973999 2501.502197,513.168762 
	C2501.502197,447.695709 2501.571289,382.222504 2501.451416,316.749664 
	C2501.423096,301.280853 2503.732910,286.287231 2512.200195,273.263397 
	C2526.913086,250.633408 2548.321533,238.811264 2575.324219,238.121429 
	C2587.401855,237.812897 2599.515625,238.924957 2611.678711,239.394852 
	C2611.678711,215.394379 2611.678711,190.833511 2611.678711,165.969894 
	C2604.403564,165.594696 2597.434570,164.963028 2590.462646,164.925446 
	C2567.159668,164.799789 2546.162598,171.387207 2528.486084,187.058334 
	C2517.025391,197.218552 2509.173340,209.805420 2503.985840,224.137451 
	C2503.178711,226.366547 2502.726807,229.240906 2498.740234,227.414047 
	C2498.740234,208.419952 2498.740234,189.326462 2498.740234,170.047302 
	C2472.444580,170.047302 2446.537842,170.047302 2420.164062,170.047302 
	C2420.164062,272.674225 2420.164062,375.087036 2420.164062,478.499939 
z"/>
<path fill="#FEFEFE" opacity="1.000000" stroke="none" 
	d="
M1343.149048,604.056702 
	C1343.265625,602.073669 1343.483887,600.090637 1343.484131,598.107605 
	C1343.498657,457.612366 1343.495972,317.117096 1343.494629,176.621841 
	C1343.494629,174.484695 1343.494629,172.347565 1343.494629,170.034744 
	C1370.200195,170.034744 1396.458008,170.034744 1423.074463,170.034744 
	C1423.074463,189.170349 1423.074463,208.109924 1423.074463,226.903717 
	C1426.950684,228.452438 1428.622437,226.792419 1430.399048,223.753967 
	C1439.004761,209.036484 1448.496216,195.044617 1462.654297,184.833542 
	C1477.597656,174.056030 1494.061768,167.640320 1512.439697,166.071075 
	C1537.055664,163.969177 1560.887939,166.603287 1583.723022,176.726456 
	C1605.097778,186.202240 1622.616943,200.347549 1636.363403,219.135590 
	C1653.799194,242.965912 1664.355957,269.655029 1668.651245,298.837677 
	C1668.940796,300.804047 1668.984375,302.820129 1668.986328,304.813232 
	C1669.008179,328.479095 1668.657104,352.151520 1669.108887,375.808746 
	C1669.472290,394.838959 1664.981323,412.788330 1658.536621,430.351196 
	C1649.554688,454.828033 1635.656006,476.223480 1616.102783,493.575409 
	C1600.523926,507.400757 1582.260742,516.541138 1562.010010,521.333740 
	C1541.009888,526.303772 1519.838867,526.934814 1498.667114,522.135254 
	C1472.649658,516.237244 1452.985107,501.260590 1438.133423,479.514252 
	C1435.226807,475.258362 1432.723877,470.726379 1429.807007,466.478149 
	C1428.891602,465.144806 1427.230835,464.323151 1424.855347,462.422241 
	C1424.855347,510.450104 1424.855347,556.758728 1424.861816,603.855713 
	C1424.912109,605.096008 1424.956055,605.548035 1425.000000,606.000000 
	C1397.979126,606.000000 1370.958130,606.000000 1343.660767,605.705811 
	C1343.305908,604.960022 1343.227539,604.508362 1343.149048,604.056702 
M1426.077637,378.313202 
	C1428.088013,386.031158 1429.620483,393.912354 1432.191528,401.438843 
	C1443.414429,434.294647 1467.095215,457.343262 1503.492310,458.384613 
	C1531.967407,459.199341 1553.627319,447.705292 1569.133911,424.074585 
	C1580.166504,407.262207 1585.264526,388.411560 1587.497314,368.743378 
	C1591.081299,337.173859 1589.069580,306.189819 1575.391602,276.906494 
	C1557.374023,238.332489 1520.570435,224.454193 1481.331787,235.953217 
	C1455.207642,243.608963 1440.591675,263.206024 1432.151245,287.726410 
	C1422.085327,316.969360 1421.141968,347.070648 1426.077637,378.313202 
z"/>
<path fill="#393838" opacity="1.000000" stroke="none" 
	d="
M1342.670898,604.039062 
	C1343.227539,604.508362 1343.305908,604.960022 1343.192139,605.705811 
	C900.312439,606.000000 457.624878,606.000000 14.445086,605.652649 
	C9.404938,601.992065 4.692228,598.846313 2.340531,593.375061 
	C2.225499,593.107422 1.461697,593.118652 0.999999,593.000000 
	C1.000000,397.166687 0.997776,201.333374 1.041329,5.500079 
	C1.041663,3.999982 1.666667,2.500023 2.500000,1.000000 
	C2.999681,193.482285 2.999331,385.964569 2.999460,578.446838 
	C2.999461,580.280029 2.991290,582.113342 3.011410,583.946350 
	C3.150104,596.582153 10.301991,603.825806 22.814213,603.983948 
	C25.980122,604.023987 29.146879,603.999939 32.313248,603.999939 
	C465.606689,604.000366 898.900146,604.000366 1332.193604,604.001282 
	C1335.526611,604.001282 1338.859619,604.014343 1342.670898,604.039062 
z"/>
<path fill="#393838" opacity="1.000000" stroke="none" 
	d="
M1425.468628,606.000000 
	C1424.956055,605.548035 1424.912109,605.096008 1424.960571,604.314209 
	C1694.675415,603.989624 1964.297974,603.996765 2233.920410,603.999512 
	C2489.545166,604.002136 2745.169922,603.994568 3000.794678,604.026245 
	C3008.650146,604.027222 3015.944824,602.795593 3020.065918,595.240601 
	C3021.676025,592.289246 3022.247314,588.700562 3022.905518,585.326843 
	C3023.312744,583.238647 3022.999268,581.008789 3022.999268,578.842529 
	C3023.000244,386.540802 3023.000000,194.239059 3023.000000,1.468624 
	C3023.333252,1.166231 3023.943604,1.315137 3023.955322,1.501631 
	C3024.038818,2.828813 3024.000000,4.163602 3024.000000,5.495955 
	C3024.000000,201.684860 3024.000000,397.873779 3023.653320,594.543213 
	C3020.352783,597.781311 3017.382812,600.522095 3014.454346,603.306763 
	C3013.576416,604.141785 3012.814941,605.098877 3012.000000,606.000000 
	C2483.312500,606.000000 1954.624878,606.000000 1425.468628,606.000000 
z"/>
<path fill="#20180C" opacity="1.000000" stroke="none" 
	d="
M0.999999,593.476685 
	C1.461697,593.118652 2.225499,593.107422 2.340531,593.375061 
	C4.692228,598.846313 9.404938,601.992065 13.976429,605.652649 
	C9.743699,606.000000 5.487399,606.000000 1.000000,606.000000 
	C1.000000,601.986267 1.000000,597.969788 0.999999,593.476685 
z"/>
<path fill="#130C08" opacity="1.000000" stroke="none" 
	d="
M3012.479004,606.000000 
	C3012.814941,605.098877 3013.576416,604.141785 3014.454346,603.306763 
	C3017.382812,600.522095 3020.352783,597.781311 3023.653320,595.011841 
	C3024.000000,598.591980 3024.000000,602.183960 3024.000000,606.000000 
	C3020.321289,606.000000 3016.639648,606.000000 3012.479004,606.000000 
z"/>
<path fill="#FEFEFE" opacity="1.000000" stroke="none" 
	d="
M972.739563,165.685974 
	C1001.521973,161.593552 1027.694214,165.841553 1049.232788,186.419113 
	C1062.664429,199.251465 1070.751221,215.434219 1076.865967,232.715164 
	C1077.635010,234.888443 1078.365356,237.075378 1079.333618,239.897079 
	C1085.330688,224.185760 1093.309692,210.553162 1104.635864,198.962967 
	C1122.116699,181.074921 1143.425049,170.575241 1167.832886,166.203415 
	C1189.190308,162.378036 1210.275024,163.681839 1230.895752,170.699722 
	C1256.526855,179.422714 1275.709229,195.760513 1288.058228,219.850952 
	C1297.019653,237.333069 1301.077515,255.993347 1301.048462,275.687805 
	C1300.931519,354.847534 1301.000000,434.007477 1301.000000,513.167358 
	C1301.000000,514.962646 1301.000000,516.757935 1301.000000,518.774109 
	C1274.072266,518.774109 1247.490845,518.774109 1220.504761,518.774109 
	C1220.504761,516.672241 1220.504639,514.721436 1220.504639,512.770630 
	C1220.504395,441.776733 1220.621948,370.782410 1220.362671,299.789459 
	C1220.328369,290.401276 1219.359009,280.775055 1217.098877,271.687836 
	C1212.724731,254.100815 1200.321411,243.298462 1183.676758,237.474808 
	C1165.853271,231.238617 1147.906250,231.451523 1130.701660,239.632568 
	C1109.488403,249.719833 1099.467773,267.677979 1097.065674,290.372223 
	C1096.471191,295.988800 1096.519897,301.688721 1096.517090,307.350403 
	C1096.483154,375.677887 1096.495239,444.005341 1096.495239,512.332825 
	C1096.495239,514.329834 1096.495239,516.326782 1096.495239,518.661804 
	C1070.141357,518.661804 1043.926392,518.661804 1017.165649,518.661804 
	C1017.165649,516.900208 1017.165710,515.125122 1017.165710,513.349976 
	C1017.165710,440.689545 1017.148560,368.029114 1017.183228,295.368683 
	C1017.188721,283.903625 1015.798218,272.745575 1010.319885,262.482422 
	C1001.910400,246.727997 988.647156,237.478973 971.159851,234.612869 
	C949.665955,231.090134 930.018982,235.284943 913.723633,250.498413 
	C900.229797,263.096405 894.540222,279.338989 893.278503,297.374115 
	C893.022949,301.026978 893.011780,304.701965 893.010986,308.366821 
	C892.996216,376.527618 893.000122,444.688446 893.000122,512.849243 
	C893.000122,514.674011 893.000122,516.498779 893.000122,518.661621 
	C866.007874,518.661621 839.135315,518.661621 812.047546,518.661621 
	C812.047546,402.536652 812.047546,286.463989 812.047546,170.112457 
	C837.355286,170.112457 862.581360,170.112457 888.254944,170.112457 
	C889.023010,191.440598 889.786804,212.651352 890.550659,233.862106 
	C906.432007,197.109955 931.910217,172.545120 972.739563,165.685974 
z"/>
<path fill="#FEFEFE" opacity="1.000000" stroke="none" 
	d="
M2091.903809,493.107239 
	C2060.290283,463.977570 2044.478027,427.360046 2039.028931,385.830658 
	C2034.288818,349.704437 2034.912476,313.693390 2044.133423,278.216156 
	C2052.315430,246.737015 2067.177490,218.984100 2092.086426,197.494370 
	C2114.452148,178.198624 2140.526123,167.515274 2170.170410,165.769058 
	C2184.217041,164.941650 2198.149170,165.458755 2211.835693,168.832123 
	C2237.342773,175.119186 2256.595459,190.144867 2270.903809,211.850296 
	C2273.648926,216.014572 2276.037354,220.413162 2278.740723,224.606735 
	C2279.571533,225.895599 2280.902588,226.862183 2282.004395,227.976379 
	C2282.405273,227.744019 2282.805908,227.511673 2283.206543,227.279312 
	C2283.206543,169.566650 2283.206543,111.854004 2283.206543,53.820175 
	C2310.581787,53.820175 2337.471191,53.820175 2364.598877,53.820175 
	C2364.598877,208.669312 2364.598877,363.432526 2364.598877,518.598389 
	C2338.359863,518.598389 2312.000977,518.598389 2285.240723,518.598389 
	C2285.240723,500.505554 2285.240723,482.413269 2285.240723,464.445648 
	C2281.286133,462.770538 2279.668701,464.659912 2277.992676,467.594635 
	C2267.071777,486.716797 2253.083984,502.862152 2233.336426,513.480896 
	C2220.787354,520.228760 2207.316895,523.704529 2193.301270,524.810059 
	C2168.489746,526.767151 2144.260986,523.706726 2121.860107,512.422913 
	C2111.408936,507.158539 2102.023438,499.779602 2091.903809,493.107239 
M2240.742920,241.683487 
	C2232.958008,238.937363 2225.371338,235.152527 2217.354492,233.622040 
	C2179.459717,226.387726 2146.505371,244.579330 2131.465576,280.137970 
	C2125.576172,294.063263 2122.134033,308.499969 2120.633789,323.514893 
	C2117.641602,353.458435 2119.666260,382.849274 2132.137451,410.558136 
	C2145.314453,439.835632 2166.969727,457.847778 2200.620117,458.394745 
	C2228.972900,458.855560 2250.726807,447.199768 2265.911377,423.336731 
	C2276.210205,407.151917 2281.150146,389.143799 2283.420166,370.282928 
	C2286.823730,342.000488 2285.596191,314.079041 2275.977783,287.014343 
	C2269.351807,268.369934 2258.698486,252.590820 2240.742920,241.683487 
z"/>
<path fill="#FEFEFE" opacity="1.000000" stroke="none" 
	d="
M1758.087158,188.022278 
	C1794.517090,167.764145 1833.339355,162.689209 1873.897949,166.701797 
	C1899.088379,169.193954 1923.025635,175.530487 1944.566772,189.175446 
	C1971.774292,206.409775 1987.926758,231.091095 1991.801270,263.112091 
	C1993.416260,276.458954 1993.715942,290.024536 1993.750977,303.492920 
	C1993.932617,373.321625 1993.835571,443.151001 1993.835571,512.980164 
	C1993.835571,514.785278 1993.835693,516.590393 1993.835693,518.696655 
	C1967.825684,518.696655 1942.111206,518.696655 1916.077881,518.696655 
	C1916.077881,502.826355 1916.077881,487.048920 1916.077881,471.357269 
	C1911.929565,469.622467 1911.308228,473.086914 1910.104370,475.081818 
	C1898.726318,493.935852 1882.955811,507.526428 1862.671875,516.238586 
	C1846.439575,523.210510 1829.539062,525.893677 1812.072388,526.107178 
	C1788.569946,526.394531 1765.936890,522.422363 1744.942505,511.486420 
	C1715.305542,496.048645 1698.570557,471.413177 1694.087769,438.406006 
	C1691.798584,421.551208 1692.343262,404.784546 1697.241211,388.416931 
	C1703.647461,367.010162 1717.015381,351.059235 1736.246216,339.812988 
	C1759.582764,326.165802 1785.375488,320.734344 1811.682617,317.014893 
	C1837.710693,313.334900 1863.765869,309.846130 1889.785522,306.108978 
	C1892.856323,305.667969 1895.892578,304.440582 1898.748047,303.144043 
	C1909.278076,298.362701 1912.911255,291.704712 1912.382568,280.141266 
	C1911.902588,269.642120 1909.997925,259.555298 1904.102539,250.758667 
	C1895.840698,238.431244 1883.664917,231.831863 1869.319336,229.504303 
	C1845.381104,225.620392 1822.496094,228.322632 1801.794678,242.093506 
	C1792.569824,248.230103 1785.790039,256.543304 1780.889282,266.431366 
	C1780.012207,268.200775 1779.158325,269.981628 1778.190796,271.968445 
	C1753.212646,266.848358 1728.377197,261.757538 1703.090088,256.574097 
	C1712.681763,226.775528 1731.145874,204.259796 1758.087158,188.022278 
M1836.053467,465.562622 
	C1844.705933,464.045624 1853.543091,463.201843 1861.976929,460.887726 
	C1889.273193,453.398041 1910.297241,427.741302 1912.301514,399.534637 
	C1913.078979,388.593475 1912.708496,377.569763 1912.827026,366.583282 
	C1912.875854,362.052216 1912.835205,357.520203 1912.835205,353.340851 
	C1907.215820,355.333282 1902.217041,357.863281 1896.930298,358.847382 
	C1875.536377,362.829803 1854.059448,366.369507 1832.602173,370.007477 
	C1816.921143,372.666138 1801.686279,376.473999 1788.372681,385.793335 
	C1766.150146,401.348633 1765.781006,437.618347 1787.733032,453.472504 
	C1801.940918,463.733490 1818.168457,466.124817 1836.053467,465.562622 
z"/>
<path fill="#FEFEFE" opacity="1.000000" stroke="none" 
	d="
M2641.675781,314.573303 
	C2647.206055,269.914734 2664.264404,231.424927 2698.430908,201.833832 
	C2721.725586,181.658737 2749.121826,170.423721 2779.747314,166.897339 
	C2807.769287,163.670731 2835.316406,165.434677 2862.049072,174.819565 
	C2899.843750,188.088074 2927.654297,212.699417 2944.957275,248.972168 
	C2952.897949,265.617920 2958.201416,283.054749 2960.696045,301.335297 
	C2960.853027,302.487396 2960.986328,303.654236 2960.987305,304.814331 
	C2961.004883,325.308838 2961.000000,345.803314 2961.000000,366.884216 
	C2880.867432,366.884216 2800.826660,366.884216 2720.376953,366.884216 
	C2721.690430,396.166931 2728.763184,422.459473 2751.229004,442.260925 
	C2764.090332,453.596832 2779.563721,459.498169 2796.516602,461.311432 
	C2817.822998,463.590363 2838.422363,461.686676 2857.156494,449.969666 
	C2867.610596,443.431366 2875.325928,434.482330 2880.673828,423.434509 
	C2881.673340,421.369659 2882.557373,419.248871 2883.560059,417.007263 
	C2908.449951,422.166779 2933.113037,427.279297 2958.051758,432.448914 
	C2953.473145,447.531158 2946.623535,461.241974 2936.640381,473.324951 
	C2914.550537,500.059906 2885.576904,515.278320 2852.142822,521.750610 
	C2811.614746,529.596069 2771.436035,527.981995 2733.074463,511.203400 
	C2699.630615,496.575897 2675.038086,472.332458 2659.037842,439.400421 
	C2644.055908,408.564697 2638.960449,375.806915 2639.804688,341.900452 
	C2640.028076,332.929291 2640.982910,323.976349 2641.675781,314.573303 
M2769.500000,311.836548 
	C2807.604492,311.836548 2845.708740,311.836548 2883.844727,311.836548 
	C2880.615723,265.792542 2854.378906,228.580795 2803.383545,228.951233 
	C2750.289551,229.336929 2722.939941,272.256165 2721.131836,311.836548 
	C2736.932617,311.836548 2752.716309,311.836548 2769.500000,311.836548 
z"/>
<path fill="#FEFEFE" opacity="1.000000" stroke="none" 
	d="
M712.023132,201.971832 
	C746.046570,231.704834 763.873047,269.559082 768.593750,313.468872 
	C770.470947,330.929901 769.031250,348.754639 768.986755,366.413544 
	C768.901550,400.275452 758.014038,430.833405 739.447937,458.662689 
	C718.548645,489.989288 689.300964,510.208923 653.032593,519.930603 
	C628.984070,526.376770 604.436584,527.481445 579.702087,524.582458 
	C559.001953,522.156311 539.268616,516.624390 520.992249,506.435730 
	C492.534363,490.571106 471.012787,468.138306 456.815033,438.703888 
	C438.203522,400.119080 434.440887,359.377869 438.728333,317.389832 
	C441.539490,289.859222 449.304382,263.957245 463.647675,240.165649 
	C479.832062,213.320297 501.979309,193.069153 530.594666,180.133026 
	C561.161255,166.314835 593.294006,163.403320 626.317322,166.670334 
	C648.641602,168.878876 669.769775,174.966614 689.195923,186.181931 
	C697.080750,190.734100 704.253235,196.520340 712.023132,201.971832 
M520.927612,366.584778 
	C522.530945,383.632629 526.606873,400.072937 534.201111,415.426422 
	C545.315491,437.896667 562.040710,453.737335 587.535828,458.602051 
	C626.218018,465.983002 660.010864,448.018646 675.663879,412.025208 
	C684.720398,391.200195 688.311462,369.384277 688.421326,346.861359 
	C688.535278,323.489258 685.342590,300.670227 675.553284,279.234985 
	C662.221130,250.041901 640.417236,232.490555 607.343750,231.366486 
	C576.940430,230.333176 553.309265,242.260269 538.027771,268.977844 
	C520.798035,299.101776 517.930847,331.908539 520.927612,366.584778 
z"/>
<path fill="#FEFEFE" opacity="1.000000" stroke="none" 
	d="
M94.538437,316.542450 
	C98.435692,284.352875 108.159447,254.836151 127.172485,228.718994 
	C150.600571,196.537170 181.931488,176.684174 220.857330,169.157379 
	C257.590820,162.054520 293.957794,163.760635 328.782043,178.206390 
	C369.516388,195.103729 396.491974,224.893967 408.418060,267.717072 
	C409.026276,269.901031 408.932892,272.280396 409.215027,275.048065 
	C384.109314,280.319519 359.311279,285.526367 335.479492,290.530334 
	C330.997437,281.079346 327.553894,271.613495 322.331696,263.259460 
	C311.003326,245.137466 294.063751,234.905441 272.914215,232.201523 
	C256.500214,230.103012 240.328644,231.070297 225.171295,238.760941 
	C208.583878,247.177231 197.247818,260.589386 189.394287,277.069550 
	C178.559082,299.806610 175.301712,324.044617 175.628098,348.993927 
	C175.919037,371.232147 179.852768,392.580017 188.839798,413.061340 
	C203.265259,445.936859 234.001038,463.792358 269.687592,459.495758 
	C302.206879,455.580475 324.421295,436.339172 333.647217,404.089020 
	C334.189728,402.192688 334.691101,400.284515 335.304413,398.042694 
	C359.715515,403.101379 384.076324,408.149628 408.604462,413.232544 
	C410.656921,423.336151 406.529846,432.267883 402.633453,440.957428 
	C383.369415,483.919525 349.898041,510.081970 304.605072,520.744873 
	C264.003021,530.303467 223.737579,528.223450 185.359390,510.861298 
	C158.026138,498.495880 136.327805,478.952118 120.714851,453.197296 
	C95.188004,411.088715 89.546440,365.021851 94.538437,316.542450 
z"/>
<path fill="#FEFEFE" opacity="1.000000" stroke="none" 
	d="
M2420.164062,477.999908 
	C2420.164062,375.087036 2420.164062,272.674225 2420.164062,170.047302 
	C2446.537842,170.047302 2472.444580,170.047302 2498.740234,170.047302 
	C2498.740234,189.326462 2498.740234,208.419952 2498.740234,227.414047 
	C2502.726807,229.240906 2503.178711,226.366547 2503.985840,224.137451 
	C2509.173340,209.805420 2517.025391,197.218552 2528.486084,187.058334 
	C2546.162598,171.387207 2567.159668,164.799789 2590.462646,164.925446 
	C2597.434570,164.963028 2604.403564,165.594696 2611.678711,165.969894 
	C2611.678711,190.833511 2611.678711,215.394379 2611.678711,239.394852 
	C2599.515625,238.924957 2587.401855,237.812897 2575.324219,238.121429 
	C2548.321533,238.811264 2526.913086,250.633408 2512.200195,273.263397 
	C2503.732910,286.287231 2501.423096,301.280853 2501.451416,316.749664 
	C2501.571289,382.222504 2501.502197,447.695709 2501.502197,513.168762 
	C2501.502197,514.973999 2501.502197,516.779236 2501.502197,518.785645 
	C2474.322021,518.785645 2447.560059,518.785645 2420.164062,518.785645 
	C2420.164062,505.351074 2420.164062,491.925507 2420.164062,477.999908 
z"/>
<path fill="#080707" opacity="1.000000" stroke="none" 
	d="
M1426.024292,377.885071 
	C1421.141968,347.070648 1422.085327,316.969360 1432.151245,287.726410 
	C1440.591675,263.206024 1455.207642,243.608963 1481.331787,235.953217 
	C1520.570435,224.454193 1557.374023,238.332489 1575.391602,276.906494 
	C1589.069580,306.189819 1591.081299,337.173859 1587.497314,368.743378 
	C1585.264526,388.411560 1580.166504,407.262207 1569.133911,424.074585 
	C1553.627319,447.705292 1531.967407,459.199341 1503.492310,458.384613 
	C1467.095215,457.343262 1443.414429,434.294647 1432.191528,401.438843 
	C1429.620483,393.912354 1428.088013,386.031158 1426.024292,377.885071 
z"/>
<path fill="#080707" opacity="1.000000" stroke="none" 
	d="
M2241.055664,241.878616 
	C2258.698486,252.590820 2269.351807,268.369934 2275.977783,287.014343 
	C2285.596191,314.079041 2286.823730,342.000488 2283.420166,370.282928 
	C2281.150146,389.143799 2276.210205,407.151917 2265.911377,423.336731 
	C2250.726807,447.199768 2228.972900,458.855560 2200.620117,458.394745 
	C2166.969727,457.847778 2145.314453,439.835632 2132.137451,410.558136 
	C2119.666260,382.849274 2117.641602,353.458435 2120.633789,323.514893 
	C2122.134033,308.499969 2125.576172,294.063263 2131.465576,280.137970 
	C2146.505371,244.579330 2179.459717,226.387726 2217.354492,233.622040 
	C2225.371338,235.152527 2232.958008,238.937363 2241.055664,241.878616 
z"/>
<path fill="#080707" opacity="1.000000" stroke="none" 
	d="
M1835.594727,465.593689 
	C1818.168457,466.124817 1801.940918,463.733490 1787.733032,453.472504 
	C1765.781006,437.618347 1766.150146,401.348633 1788.372681,385.793335 
	C1801.686279,376.473999 1816.921143,372.666138 1832.602173,370.007477 
	C1854.059448,366.369507 1875.536377,362.829803 1896.930298,358.847382 
	C1902.217041,357.863281 1907.215820,355.333282 1912.835205,353.340851 
	C1912.835205,357.520203 1912.875854,362.052216 1912.827026,366.583282 
	C1912.708496,377.569763 1913.078979,388.593475 1912.301514,399.534637 
	C1910.297241,427.741302 1889.273193,453.398041 1861.976929,460.887726 
	C1853.543091,463.201843 1844.705933,464.045624 1835.594727,465.593689 
z"/>
<path fill="#090808" opacity="1.000000" stroke="none" 
	d="
M2769.000000,311.836548 
	C2752.716309,311.836548 2736.932617,311.836548 2721.131836,311.836548 
	C2722.939941,272.256165 2750.289551,229.336929 2803.383545,228.951233 
	C2854.378906,228.580795 2880.615723,265.792542 2883.844727,311.836548 
	C2845.708740,311.836548 2807.604492,311.836548 2769.000000,311.836548 
z"/>
<path fill="#080707" opacity="1.000000" stroke="none" 
	d="
M520.886963,366.132141 
	C517.930847,331.908539 520.798035,299.101776 538.027771,268.977844 
	C553.309265,242.260269 576.940430,230.333176 607.343750,231.366486 
	C640.417236,232.490555 662.221130,250.041901 675.553284,279.234985 
	C685.342590,300.670227 688.535278,323.489258 688.421326,346.861359 
	C688.311462,369.384277 684.720398,391.200195 675.663879,412.025208 
	C660.010864,448.018646 626.218018,465.983002 587.535828,458.602051 
	C562.040710,453.737335 545.315491,437.896667 534.201111,415.426422 
	C526.606873,400.072937 522.530945,383.632629 520.886963,366.132141 
z"/>
</svg>